# xmcd CD database file
#
# Track frame offsets:
#	150
#	19395
#	42832
#	69567
#	109130
#	131930
#	158395
#	178622
#	199157
#	220875
#	247700
#
# Disc length: 3602 seconds
#
# Revision: 2
# Processed by: cddbd v1.4PL0 Copyright (c) Steve Scherf et al.
# Submitted via: CDex 1.50beta10
#
DISCID=960e100b
DTITLE=Tail Dragger and His Chicago Blues Band - American People
DYEAR=1999
DGENRE=Blues
TTITLE0=Bought Me a New Home
TTITLE1=American People
TTITLE2=You Gotta Go
TTITLE3=My Woman Is Gone
TTITLE4=Bertha
TTITLE5=My Head Is Bald
TTITLE6=Don't Start Me Talkin'
TTITLE7=Bad Boy
TTITLE8=Ooh Baby (Hold Me)
TTITLE9=Long Distance Call
TTITLE10=Betty
EXTD=YEAR: 1999
EXTT0=
EXTT1=
EXTT2=
EXTT3=
EXTT4=
EXTT5=
EXTT6=
EXTT7=
EXTT8=
EXTT9=
EXTT10=
PLAYORDER=
